<?xml version="1.0" standalone="no"?>
<!DOCTYPE svg PUBLIC "-//W3C//DTD SVG 20010904//EN"
 "http://www.w3.org/TR/2001/REC-SVG-20010904/DTD/svg10.dtd">
<svg version="1.0" xmlns="http://www.w3.org/2000/svg"
 width="1280.000000pt" height="1254.000000pt" viewBox="0 0 1280.000000 1254.000000"
 preserveAspectRatio="xMidYMid meet">
<metadata>
Created by potrace 1.15, written by Peter Selinger 2001-2017
</metadata>
<g transform="translate(0.000000,1254.000000) scale(0.100000,-0.100000)"
fill="#000000" stroke="none">
<path d="M12780 12524 c0 -8 5 -12 10 -9 6 4 8 11 5 16 -9 14 -15 11 -15 -7z"/>
<path d="M12750 12492 c-43 -15 -109 -73 -178 -160 -42 -53 -114 -140 -159
-192 -102 -119 -2821 -2844 -3458 -3466 -1818 -1775 -3303 -3161 -4820 -4498
-192 -170 -371 -329 -397 -354 -40 -38 -49 -43 -63 -32 -19 16 -13 20 -178
-134 -70 -65 -130 -117 -132 -114 -3 2 8 17 25 33 l29 28 -29 37 c-43 54 -163
143 -243 181 -49 22 -89 33 -136 37 -121 8 -161 -35 -161 -173 0 -91 36 -212
102 -338 l42 -80 -85 -81 c-375 -357 -728 -671 -1069 -950 -262 -214 -1175
-949 -1579 -1270 l-263 -209 7 -46 c9 -60 60 -221 92 -288 36 -75 95 -137 161
-170 52 -26 67 -28 168 -28 l111 0 119 90 c358 271 2864 2296 2864 2314 0 4
-6 13 -13 21 -6 8 -3 7 9 -3 11 -9 24 -17 28 -17 4 0 20 -12 35 -27 41 -41
190 -139 263 -173 37 -17 95 -34 142 -40 l78 -11 30 27 c108 104 106 278 -6
434 -93 130 -119 161 -132 156 -8 -3 -14 -4 -14 -2 0 2 61 59 135 127 75 67
134 128 131 135 -3 7 79 90 182 186 422 392 1503 1435 2487 2398 132 130 458
449 725 710 655 641 1577 1548 2010 1975 2701 2667 2756 2723 2859 2858 43 57
51 64 60 49 9 -16 10 -16 16 0 4 11 13 14 23 10 15 -5 16 -4 2 13 -18 22 -17
30 20 165 16 58 39 161 50 230 12 69 46 241 76 383 31 143 54 260 52 262 -2 1
-10 0 -18 -3z m-8866 -9556 c-3 -8 -18 -22 -32 -32 -27 -17 -27 -17 2 15 33
35 38 37 30 17z"/>
</g>
</svg>
